<?xml version="1.0" encoding="UTF-8" standalone="no"?>
<!DOCTYPE svg PUBLIC "-//W3C//DTD SVG 1.1//EN" "http://www.w3.org/Graphics/SVG/1.1/DTD/svg11.dtd">
<!-- Created with Vectornator (http://vectornator.io/) -->
<svg height="100%" stroke-miterlimit="10" style="fill-rule:nonzero;clip-rule:evenodd;stroke-linecap:round;stroke-linejoin:round;" version="1.1" viewBox="0 0 3370.82 2384.24" width="100%" xmlSpace="preserve" xmlns="http://www.w3.org/2000/svg" xmlnsVectornator="http://vectornator.io" xmlnsXlink="http://www.w3.org/1999/xlink">
<defs/>
<g id="Layer-1" vectornatorLayerName="Layer 1">
<g opacity="1">
<path d="M2621.56 727.102L2621.56 1423.18C2621.56 1494.9 2609.43 1560.55 2585.18 1620.14C2560.92 1679.73 2527.17 1731.41 2483.93 1775.18C2440.69 1818.95 2388.74 1853.22 2328.1 1878.01C2267.46 1902.79 2200.75 1915.71 2127.98 1916.77L2118.49 1889.87C2169.11 1858.23 2206.81 1818.16 2231.6 1769.64C2256.38 1721.13 2268.78 1665.23 2268.78 1601.95L2268.78 632.182L2621.56 632.182L2621.56 727.102Z" fill="#000000" fill-rule="nonzero" opacity="1" stroke="none"/>
<path d="M2387.43 2103.44L2382.68 2174.63C2382.68 2186.24 2389.54 2202.06 2403.25 2222.09C2418.01 2243.19 2425.39 2259.01 2425.39 2269.55C2425.39 2288.54 2419.07 2304.36 2406.41 2317.01C2393.75 2329.67 2377.93 2336 2358.95 2336C2341.02 2336 2325.73 2329.67 2313.07 2317.01C2300.42 2304.36 2294.09 2288.54 2294.09 2269.55C2294.09 2256.9 2300.94 2240.55 2314.65 2220.51C2329.42 2199.42 2336.8 2184.13 2336.8 2174.63L2332.06 2103.44L2210.24 2103.44L2210.24 2019.6L2509.24 2019.6L2509.24 2103.44L2387.43 2103.44Z" fill="#000000" fill-rule="nonzero" opacity="1" stroke="none"/>
<path d="M1778.36 1511.78L1778.36 1002.37C1778.36 953.855 1765.17 908.505 1738.81 866.318C1712.44 824.131 1675.26 792.755 1627.27 772.189C1579.29 751.623 1521.28 745.558 1453.25 753.996C1385.23 762.433 1309.55 793.546 1226.24 847.334L1196.18 799.874C1245.75 742.922 1302.96 698.626 1367.83 666.986C1432.69 635.346 1499.13 615.834 1567.16 608.451C1635.18 601.069 1701.89 604.76 1767.28 619.525C1832.67 634.291 1891.2 658.548 1942.88 692.298C1994.56 726.047 2036.22 769.025 2067.86 821.231C2099.5 873.437 2115.32 933.289 2115.32 1000.79L2115.32 1511.78L1778.36 1511.78ZM1253.13 983.386C1253.13 964.402 1261.83 948.318 1279.23 935.135C1296.64 921.952 1318.52 912.196 1344.89 905.868C1371.25 899.54 1399.47 896.112 1429.52 895.585C1459.58 895.058 1487.79 898.222 1514.16 905.077C1540.53 911.932 1562.41 921.952 1579.81 935.135C1597.22 948.318 1605.92 964.402 1605.92 983.386L1605.92 1511.78L1253.13 1511.78L1253.13 983.386Z" fill="#000000" fill-rule="nonzero" opacity="1" stroke="none"/>
<path d="M1862.2 1709.53C1862.2 1728.51 1855.87 1744.33 1843.22 1756.99C1830.56 1769.64 1814.74 1775.97 1795.76 1775.97C1777.83 1775.97 1762.27 1769.38 1749.09 1756.19C1735.9 1743.01 1729.31 1727.45 1729.31 1709.53C1729.31 1691.6 1735.64 1676.3 1748.3 1663.65C1760.95 1650.99 1776.77 1644.66 1795.76 1644.66C1814.74 1644.66 1830.56 1650.99 1843.22 1663.65C1855.87 1676.3 1862.2 1691.6 1862.2 1709.53ZM1647.05 1709.53C1647.05 1728.51 1640.72 1744.33 1628.06 1756.99C1615.41 1769.64 1599.59 1775.97 1580.6 1775.97C1561.62 1775.97 1545.8 1769.64 1533.14 1756.99C1520.49 1744.33 1514.16 1728.51 1514.16 1709.53C1514.16 1691.6 1520.49 1676.3 1533.14 1663.65C1545.8 1650.99 1561.62 1644.66 1580.6 1644.66C1599.59 1644.66 1615.41 1650.73 1628.06 1662.86C1640.72 1674.99 1647.05 1690.54 1647.05 1709.53Z" fill="#000000" fill-rule="nonzero" opacity="1" stroke="none"/>
<path d="M746.889 1418.44L746.889 413.865C746.889 346.366 757.963 288.36 780.111 239.845C802.259 191.33 831.263 152.044 867.121 121.986C902.98 91.9275 942.794 71.0978 986.563 59.4965C1030.33 47.8951 1074.36 45.2584 1118.66 51.5864C1162.96 57.9145 1204.62 72.9435 1243.64 96.6735C1282.66 120.404 1314.83 152.835 1340.14 193.967L1310.08 236.681C1274.22 212.423 1242.32 199.767 1214.37 198.713C1186.42 197.658 1162.69 205.568 1143.18 222.443C1123.67 239.317 1108.9 263.311 1098.88 294.424C1088.87 325.537 1083.86 360.604 1083.86 399.627L1083.86 1418.44L1083.86 1511.78L746.889 1511.78L746.889 1418.44Z" fill="#000000" fill-rule="nonzero" opacity="1" stroke="none"/>
</g>
</g>
</svg>
