<?xml version="1.0" standalone="no"?>
<!DOCTYPE svg PUBLIC "-//W3C//DTD SVG 20010904//EN"
 "http://www.w3.org/TR/2001/REC-SVG-20010904/DTD/svg10.dtd">
<svg version="1.0" xmlns="http://www.w3.org/2000/svg"
 width="788.000000pt" height="788.000000pt" viewBox="0 0 788.000000 788.000000"
 preserveAspectRatio="xMidYMid meet">
<metadata>
Created by potrace 1.14, written by Peter Selinger 2001-2017
</metadata>
<g transform="translate(0.000000,788.000000) scale(0.100000,-0.100000)"
fill="#000000" stroke="none">
<path d="M1957 7724 c-3 -4 -39 -7 -79 -9 -179 -6 -369 -71 -528 -179 -137
-93 -280 -263 -350 -416 -14 -30 -29 -58 -33 -61 -5 -3 -8 -10 -8 -15 0 -5 -8
-37 -19 -71 -20 -64 -43 -171 -56 -258 -4 -27 -8 -900 -8 -1940 l-1 -1890 555
0 555 0 1 1850 c1 1018 5 1891 8 1941 3 51 10 104 16 118 5 15 9 30 9 34 -1 4
0 9 1 12 2 6 7 26 14 58 12 54 78 171 124 218 71 74 150 107 247 106 37 0 50
-2 114 -16 35 -8 169 -73 187 -91 22 -21 25 -20 66 34 49 63 67 103 50 109 -6
2 -12 8 -12 14 0 37 -232 268 -269 268 -6 0 -11 4 -11 8 0 11 -154 88 -228
113 -75 26 -177 48 -259 54 -37 4 -70 8 -73 10 -4 3 -10 2 -13 -1z"/>
<path d="M3787 5883 c-1 0 -49 -4 -107 -7 -58 -3 -116 -8 -130 -10 -57 -10
-106 -18 -127 -21 -12 -2 -36 -7 -55 -11 -18 -4 -35 -8 -38 -9 -147 -32 -498
-183 -595 -257 -5 -4 -48 -36 -95 -70 -47 -35 -129 -106 -183 -159 l-99 -97
19 -32 c10 -18 22 -41 28 -51 5 -11 13 -19 17 -19 5 0 8 -5 8 -12 0 -6 7 -19
16 -29 15 -16 21 -14 102 35 115 70 293 156 313 152 3 0 12 4 20 10 15 12 157
61 200 69 13 3 49 10 79 17 31 7 131 12 230 12 147 0 188 -4 260 -22 86 -23
260 -98 260 -114 0 -4 5 -8 11 -8 28 0 144 -112 207 -199 32 -44 101 -176 106
-203 1 -7 10 -38 20 -68 9 -30 19 -82 23 -115 3 -33 6 -447 7 -920 l1 -860
555 0 555 0 -1 890 c0 490 -4 920 -8 958 -15 137 -71 303 -141 420 -19 32 -35
60 -35 63 0 3 -6 12 -12 20 -21 24 -31 36 -73 89 -115 144 -268 262 -470 363
-105 52 -298 122 -367 132 -4 1 -22 6 -40 11 -18 5 -49 12 -68 15 -19 3 -40 7
-47 9 -11 4 -80 11 -188 20 -22 2 -40 4 -40 5 0 2 -116 5 -118 3z"/>
<path d="M5903 4163 c0 -896 -3 -1666 -7 -1712 -10 -133 -58 -306 -117 -421
-63 -124 -180 -259 -299 -345 -36 -26 -67 -48 -68 -50 -7 -6 21 -80 32 -87 6
-4 24 -5 41 -3 16 2 68 7 115 10 95 7 217 28 299 52 29 8 60 16 67 17 7 1 17
5 20 9 4 4 14 7 22 7 8 0 28 6 45 14 18 8 61 27 97 42 289 125 539 350 700
629 28 48 50 88 50 91 0 2 13 31 29 64 16 33 27 60 25 60 -3 0 2 13 11 30 16
32 70 230 79 295 3 22 10 69 15 105 5 37 10 668 10 1443 l1 1377 -583 0 -583
0 -1 -1627z"/>
<path d="M3107 4923 c-3 -3 -32 -7 -64 -8 -52 -3 -132 -14 -158 -21 -5 -2 -19
-5 -30 -7 -61 -15 -83 -23 -144 -52 -77 -38 -135 -93 -152 -144 -9 -27 -12
-258 -11 -911 0 -481 1 -880 1 -886 1 -7 179 -10 581 -10 l580 0 1 31 c0 16 1
419 1 895 0 958 5 887 -66 960 -75 76 -243 136 -408 145 -46 3 -93 7 -105 9
-11 3 -24 2 -26 -1z"/>
<path d="M3569 2437 c-36 -9 -92 -47 -121 -82 -9 -11 -22 -41 -28 -67 -38
-156 65 -283 223 -274 81 5 137 38 180 108 23 36 31 134 15 178 -24 66 -95
131 -147 136 -14 1 -26 3 -26 4 0 7 -67 4 -96 -3z"/>
<path d="M4305 2443 c-36 -7 -80 -27 -99 -45 -11 -10 -23 -18 -26 -18 -15 0
-50 -82 -55 -127 -18 -160 136 -281 290 -229 88 31 149 121 141 212 -7 78 -20
108 -65 153 -35 35 -133 63 -186 54z"/>
<path d="M5719 1199 c-6 -3 -8 -63 -7 -139 l3 -134 198 2 c149 1 197 -1 198
-11 1 -6 3 -25 5 -42 2 -16 4 -73 6 -125 l3 -95 -55 -90 c-72 -116 -80 -136
-80 -192 0 -49 18 -113 32 -113 4 0 8 -5 8 -11 0 -13 34 -44 71 -64 141 -77
319 29 319 190 0 29 -50 142 -68 154 -5 3 -23 36 -41 72 -32 65 -32 66 -26
180 3 63 8 121 11 130 4 15 26 17 177 17 95 0 184 1 198 1 l27 1 -2 138 -1
137 -483 0 c-266 0 -488 -3 -493 -6z"/>
</g>
</svg>
